<svg width="19" height="19" viewBox="0 0 19 19" fill="none" xmlns="http://www.w3.org/2000/svg">
<g id="Frame">
<path id="Vector" d="M8.70817 3.95826H4.74984C4.32991 3.95826 3.92718 4.12507 3.63025 4.42201C3.33332 4.71894 3.1665 5.12167 3.1665 5.54159V14.2499C3.1665 14.6699 3.33332 15.0726 3.63025 15.3695C3.92718 15.6664 4.32991 15.8333 4.74984 15.8333H13.4582C13.8781 15.8333 14.2808 15.6664 14.5778 15.3695C14.8747 15.0726 15.0415 14.6699 15.0415 14.2499V10.2916M13.9221 2.83884C14.0681 2.68762 14.2429 2.567 14.436 2.48401C14.6292 2.40103 14.837 2.35736 15.0472 2.35553C15.2574 2.3537 15.4659 2.39376 15.6605 2.47337C15.8551 2.55299 16.0319 2.67055 16.1805 2.81922C16.3292 2.96788 16.4468 3.14466 16.5264 3.33925C16.606 3.53383 16.6461 3.74233 16.6442 3.95256C16.6424 4.16279 16.5987 4.37056 16.5157 4.56373C16.4328 4.75691 16.3121 4.93162 16.1609 5.07768L9.36367 11.8749H7.12484V9.63609L13.9221 2.83884Z" stroke="#374151" stroke-width="1.5" stroke-linecap="round" stroke-linejoin="round"/>
</g>
</svg>
