<svg width="36" height="36" viewBox="0 0 36 36" fill="none" xmlns="http://www.w3.org/2000/svg">
<g id="Frame" clip-path="url(#clip0_113_3539)">
<path id="Vector" d="M28.4999 13.0647L20.5004 6.84265C19.7984 6.29652 18.9344 6 18.0449 6C17.1555 6 16.2914 6.29652 15.5894 6.84265L7.58842 13.0647C7.10759 13.4386 6.71856 13.9174 6.45106 14.4647C6.18355 15.0119 6.04463 15.613 6.04492 16.2222V27.0222C6.04492 27.8178 6.36099 28.5809 6.9236 29.1435C7.48621 29.7061 8.24927 30.0222 9.04492 30.0222H27.0449C27.8406 30.0222 28.6036 29.7061 29.1662 29.1435C29.7289 28.5809 30.0449 27.8178 30.0449 27.0222V16.2222C30.0449 14.9877 29.4749 13.8222 28.4999 13.0647Z" stroke="#4B5563" stroke-width="2.5" stroke-linecap="round" stroke-linejoin="round"/>
<path id="Vector_2" d="M24 22.5C20.685 24.4995 15.312 24.4995 12 22.5" stroke="#4B5563" stroke-width="2.5" stroke-linecap="round" stroke-linejoin="round"/>
</g>
<defs>
<clipPath id="clip0_113_3539">
<rect width="36" height="36" fill="white"/>
</clipPath>
</defs>
</svg>
