<svg width="36" height="36" viewBox="0 0 36 36" fill="none" xmlns="http://www.w3.org/2000/svg">
<g id="Frame" clip-path="url(#clip0_113_2889)">
<path id="Vector" d="M28.4999 13.0651L20.5004 6.84314C19.7984 6.297 18.9344 6.00049 18.0449 6.00049C17.1555 6.00049 16.2914 6.297 15.5894 6.84314L7.58842 13.0651C7.10759 13.4391 6.71856 13.9179 6.45106 14.4652C6.18355 15.0124 6.04463 15.6135 6.04492 16.2226V27.0226C6.04492 27.8183 6.36099 28.5814 6.9236 29.144C7.48621 29.7066 8.24927 30.0226 9.04492 30.0226H27.0449C27.8406 30.0226 28.6036 29.7066 29.1662 29.144C29.7289 28.5814 30.0449 27.8183 30.0449 27.0226V16.2226C30.0449 14.9881 29.4749 13.8226 28.4999 13.0651Z" fill="#32B768"/>
<path id="Vector_2" d="M24 22.5C20.685 24.4995 15.312 24.4995 12 22.5" stroke="white" stroke-width="2.5" stroke-linecap="round" stroke-linejoin="round"/>
</g>
<defs>
<clipPath id="clip0_113_2889">
<rect width="36" height="36" fill="white"/>
</clipPath>
</defs>
</svg>
